<svg width="64" height="64" viewBox="0 0 64 64" xmlns="http://www.w3.org/2000/svg">
  <!-- 背景圆形 -->
  <circle cx="32" cy="32" r="30" fill="#f0f9ff" stroke="#0ea5e9" stroke-width="2"/>
  
  <!-- 盾牌主体 - 更大的盾牌 -->
  <path d="M32 8 L46 15 L46 30 C46 42 32 52 32 52 C32 52 18 42 18 30 L18 15 Z" 
        fill="#0ea5e9"/>
  
  <!-- 盾牌边框 -->
  <path d="M32 8 L46 15 L46 30 C46 42 32 52 32 52 C32 52 18 42 18 30 L18 15 Z" 
        fill="none" stroke="#0284c7" stroke-width="1.5"/>
  
  <!-- 2FA文字 - 居中显示 -->
  <text x="32" y="32" fill="white" font-family="Arial, sans-serif" font-size="12" font-weight="bold" text-anchor="middle" dominant-baseline="middle">2FA</text>
  
  <!-- 底部简洁的锁图标 -->
  <rect x="29" y="40" width="6" height="5" rx="1" fill="white"/>
  <rect x="30" y="38" width="4" height="2" rx="2" fill="none" stroke="white" stroke-width="1.5"/>
  
  <!-- 简洁的装饰点 -->
  <circle cx="48" cy="20" r="2" fill="#10b981"/>
  <circle cx="16" cy="24" r="1.5" fill="#f59e0b"/>
</svg>